<svg width="56" height="56" viewBox="0 0 56 56" fill="none" xmlns="http://www.w3.org/2000/svg">
<path d="M27.9998 25.6667C31.9898 25.6667 34.9998 22.6567 34.9998 18.6667C34.9998 14.6767 31.9898 11.6667 27.9998 11.6667C24.0098 11.6667 20.9998 14.6767 20.9998 18.6667C20.9998 22.6567 24.0098 25.6667 27.9998 25.6667ZM27.9998 16.3334C29.3998 16.3334 30.3332 17.2667 30.3332 18.6667C30.3332 20.0667 29.3998 21.0001 27.9998 21.0001C26.5998 21.0001 25.6665 20.0667 25.6665 18.6667C25.6665 17.2667 26.5998 16.3334 27.9998 16.3334ZM30.3332 28.0001H25.6665C19.2265 28.0001 13.9998 33.2267 13.9998 39.6667V40.8334C13.9998 42.7701 15.5632 44.3334 17.4998 44.3334H38.4998C40.4365 44.3334 41.9998 42.7701 41.9998 40.8334V39.6667C41.9998 33.2267 36.7732 28.0001 30.3332 28.0001ZM18.6665 39.6667C18.6665 35.8167 21.8165 32.6667 25.6665 32.6667H30.3332C34.1832 32.6667 37.3332 35.8167 37.3332 39.6667H18.6665ZM15.1665 25.6667C16.2632 25.6667 17.2665 25.3867 18.1298 24.8967C17.1512 23.3386 16.5527 21.5723 16.3824 19.7403C16.2122 17.9082 16.4751 16.0618 17.1498 14.3501C16.5432 14.1401 15.8665 14.0001 15.1665 14.0001C11.8065 14.0001 9.33317 16.4734 9.33317 19.8334C9.33317 23.1934 11.8065 25.6667 15.1665 25.6667ZM14.2565 28.0001H12.8332C8.32984 28.0001 4.6665 31.6634 4.6665 36.1667V38.5001C4.6665 39.1534 5.17984 39.6667 5.83317 39.6667H9.33317C9.33317 35.0934 11.2232 30.9634 14.2565 28.0001ZM40.8332 25.6667C44.1932 25.6667 46.6665 23.1934 46.6665 19.8334C46.6665 16.4734 44.1932 14.0001 40.8332 14.0001C40.1098 14.0001 39.4565 14.1401 38.8498 14.3501C39.5246 16.0618 39.7875 17.9082 39.6173 19.7403C39.447 21.5723 38.8484 23.3386 37.8698 24.8967C38.7332 25.3867 39.7132 25.6667 40.8332 25.6667ZM43.1665 28.0001H41.7432C43.3023 29.5167 44.5413 31.3306 45.387 33.3346C46.2326 35.3385 46.6677 37.4917 46.6665 39.6667H50.1665C50.8198 39.6667 51.3332 39.1534 51.3332 38.5001V36.1667C51.3332 31.6634 47.6698 28.0001 43.1665 28.0001Z" fill="#FF0700"/>
</svg>
