<svg width="56" height="56" viewBox="0 0 56 56" fill="none" xmlns="http://www.w3.org/2000/svg">
<g clip-path="url(#clip0_133_192)">
<path d="M3.5 0C2.57174 0 1.6815 0.368749 1.02513 1.02513C0.368749 1.6815 0 2.57174 0 3.5L0 52.5C0 53.4283 0.368749 54.3185 1.02513 54.9749C1.6815 55.6313 2.57174 56 3.5 56H52.5C53.4283 56 54.3185 55.6313 54.9749 54.9749C55.6313 54.3185 56 53.4283 56 52.5V3.5C56 2.57174 55.6313 1.6815 54.9749 1.02513C54.3185 0.368749 53.4283 0 52.5 0L3.5 0ZM44.2225 17.5C44.9225 17.5 45.493 18.0705 45.493 18.774V28.427C45.4918 28.6779 45.4165 28.9228 45.2767 29.1311C45.1368 29.3393 44.9386 29.5017 44.7069 29.5977C44.4751 29.6938 44.2202 29.7193 43.974 29.671C43.7278 29.6228 43.5013 29.5029 43.323 29.3265L39.7355 25.739L30.9855 34.489C30.6573 34.8171 30.2123 35.0014 29.7483 35.0014C29.2842 35.0014 28.8392 34.8171 28.511 34.489L22.75 28.7245L13.489 37.989C13.1609 38.3176 12.7156 38.5024 12.2512 38.5027C11.7869 38.5031 11.3414 38.3189 11.0128 37.9907C10.6841 37.6626 10.4994 37.2174 10.499 36.753C10.4987 36.2886 10.6829 35.8431 11.011 35.5145L21.511 25.0145C21.6736 24.8515 21.8667 24.7222 22.0793 24.634C22.2919 24.5458 22.5198 24.5004 22.75 24.5004C22.9802 24.5004 23.2081 24.5458 23.4207 24.634C23.6333 24.7222 23.8264 24.8515 23.989 25.0145L29.75 30.772L37.261 23.261L33.6665 19.67C33.4901 19.4917 33.3702 19.2652 33.322 19.019C33.2737 18.7728 33.2992 18.5179 33.3953 18.2861C33.4913 18.0544 33.6537 17.8562 33.8619 17.7163C34.0702 17.5765 34.3151 17.5012 34.566 17.5H44.2225Z" fill="#FF0700"/>
</g>
<defs>
<clipPath id="clip0_133_192">
<rect width="56" height="56" fill="white"/>
</clipPath>
</defs>
</svg>
