<svg width="56" height="56" viewBox="0 0 56 56" fill="none" xmlns="http://www.w3.org/2000/svg">
<path d="M41.9998 28.5133V20.9999L30.3332 15.1666V11.6666H34.9998V6.99992H30.3332V2.33325H25.6665V6.99992H20.9998V11.6666H25.6665V15.1666L13.9998 20.9999V28.5133L4.6665 32.6666V51.3333H25.6665V41.9999C25.6665 40.7166 26.7165 39.6666 27.9998 39.6666C29.2832 39.6666 30.3332 40.7166 30.3332 41.9999V51.3333H51.3332V32.6666L41.9998 28.5133ZM46.6665 46.6666H34.9998V41.9066C34.9998 37.9632 31.8498 34.7666 27.9998 34.7666C24.1498 34.7666 20.9998 37.9632 20.9998 41.9066V46.6666H9.33317V35.4899L18.6665 31.2666V23.4499L27.9998 18.6666L37.3332 23.4266V31.2433L46.6665 35.4666V46.6666ZM27.9998 24.4999C29.9365 24.4999 31.4998 26.0633 31.4998 27.9999C31.4998 29.9366 29.9365 31.4999 27.9998 31.4999C26.0632 31.4999 24.4998 29.9366 24.4998 27.9999C24.4998 26.0633 26.0632 24.4999 27.9998 24.4999Z" fill="#FF0700"/>
</svg>
