<svg width="22" height="22" viewBox="0 0 22 22" fill="none" xmlns="http://www.w3.org/2000/svg">
<g clip-path="url(#clip0_50_5)">
<path d="M10.9957 0.849487C10.3769 4.70937 9.85703 7.0039 8.43046 8.43046C7.0039 9.85703 4.70937 10.3769 0.849487 10.9957C4.70937 11.6144 7.0039 12.1344 8.43046 13.5652C9.85703 14.9918 10.3769 17.2863 10.9957 21.1492C11.6144 17.2863 12.1344 14.9918 13.5609 13.5609C14.9918 12.1344 17.2863 11.6144 21.1492 10.9957C17.2863 10.3769 14.9918 9.85703 13.5652 8.43046C12.1344 7.0039 11.6144 4.70937 10.9957 0.849487ZM18.1758 3.82421C16.2078 5.24648 14.6953 6.26914 13.3461 6.84062C13.5652 7.24453 13.8187 7.58828 14.1109 7.88046C14.4031 8.17265 14.7469 8.42617 15.1551 8.6496C15.7309 7.30039 16.7535 5.78789 18.1758 3.82421ZM3.82679 3.82679C5.25078 5.79218 6.26914 7.30039 6.84062 8.64531C7.24453 8.42617 7.58828 8.17265 7.88046 7.88046C8.17265 7.58828 8.42617 7.24453 8.64531 6.84062C7.30039 6.26914 5.79218 5.25078 3.82679 3.82679ZM15.1551 13.3418C14.7469 13.5652 14.4031 13.8187 14.1109 14.1109C13.8187 14.4031 13.5652 14.7469 13.3418 15.1551C14.6953 15.7266 16.2078 16.7492 18.1758 18.1758C16.7492 16.2078 15.7266 14.6953 15.1551 13.3418ZM6.84062 13.3461C6.26914 14.6953 5.24648 16.2078 3.82421 18.1758C5.78789 16.7535 7.30039 15.7309 8.6496 15.1551C8.42617 14.7469 8.17265 14.4031 7.88046 14.1109C7.58828 13.8187 7.24453 13.5652 6.84062 13.3461Z" fill="#FF0700"/>
</g>
<defs>
<clipPath id="clip0_50_5">
<rect width="22" height="22" fill="white"/>
</clipPath>
</defs>
</svg>
